<svg width="216" height="71" viewBox="0 0 216 71" fill="none" xmlns="http://www.w3.org/2000/svg">
<path fill-rule="evenodd" clip-rule="evenodd" d="M134.825 22.659C134.219 20.0304 134.414 17.2418 134.528 14.5676C134.654 11.5847 134.677 8.61327 135.499 5.71042C136.002 3.9047 137.134 0.578985 138.939 0.0761281C140.734 -0.426729 142.242 1.64184 144.619 3.91613C147.534 6.7047 149.374 7.41327 155.248 4.31613C156.539 3.63041 157.648 3.13899 159.122 1.92756C159.865 1.31042 160.631 0.647559 161.659 0.624702C163.614 0.601844 164.939 2.17899 166.551 3.03613C171.579 5.68756 170.471 5.40184 172.837 6.83041C173.831 7.4247 174.882 7.91613 175.899 8.48756C177.134 9.17327 178.345 9.9047 179.659 10.4418C181.648 11.2533 185.511 12.1333 188.825 12.2133C192.151 12.2933 194.779 11.1961 197.648 13.7218C201.911 17.4933 198.562 21.7104 193.705 24.6018C193.054 24.9904 192.368 25.3218 191.705 25.7104C193.385 25.7104 195.065 25.3218 196.745 25.3218C196.094 25.6076 193.568 26.1561 192.871 26.3047C192.871 26.339 192.448 26.339 198.494 26.2476C198.414 26.3618 198.105 26.339 197.968 26.3504C194.722 26.7161 191.454 27.299 190.482 27.299C190.482 27.379 192.071 27.219 192.871 27.1961C194.437 27.1618 199.488 27.3676 200.871 27.539C200.871 27.6418 201.625 27.539 191.568 28.1676C191.568 28.1676 203.305 28.5561 204.014 28.6818C203.957 28.7618 203.865 28.7504 203.774 28.7504C200.585 28.7504 202.082 29.0704 191.202 29.0704V29.0933C191.842 29.0933 192.482 29.2076 193.122 29.2647C200.345 29.9847 199.671 29.8476 199.865 29.939C199.614 30.1104 199.065 29.9733 198.779 29.9733C197.077 29.9733 193.545 29.779 192.951 29.779C191.705 29.7561 190.459 29.8476 189.214 29.7904C187.625 29.7218 186.048 29.6304 184.459 29.6304C184.459 29.6647 191.385 30.5447 191.385 30.659C191.282 30.659 186.517 30.3847 186.517 30.3847C173.842 29.5161 168.322 29.939 161.979 29.939C142.517 29.939 149.019 30.5218 138.517 30.2018C138.448 30.1904 138.345 30.1904 138.322 30.1104C138.277 29.9618 138.654 29.9733 139.728 29.8247C144.448 29.1733 144.334 29.4818 144.334 29.3676C139.008 29.3676 139.682 29.5504 131.751 29.3676C131.305 29.3561 130.768 29.4133 130.334 29.3104C130.505 29.139 130.848 29.299 135.157 28.8876C135.739 28.8304 136.357 28.7276 136.939 28.7276V28.7047C132.997 28.7047 134.574 28.8876 125.179 28.2476C124.837 28.2247 124.322 28.2704 124.014 28.1218C124.014 27.9961 128.471 28.0076 130.334 27.9161C136.551 27.6533 136.962 27.9847 137.191 27.7561C134.939 27.7561 135.408 27.5618 128.871 27.2761C128.437 27.2533 127.957 27.3218 127.534 27.219C127.534 27.0133 134.528 26.7618 134.528 26.7504C134.482 26.7504 130.345 26.3161 130.014 26.259C128.517 26.0533 133.842 26.1904 133.842 26.0876C133.031 26.019 132.265 25.7218 131.442 25.7218C131.442 25.4133 135.557 25.5961 135.557 25.5276C134.882 25.2647 133.339 25.0361 133.157 25.0247C133.111 25.0133 133.019 25.0133 133.008 24.9561C132.985 24.899 133.077 24.8761 133.122 24.8647C133.408 24.8076 134.699 24.659 135.511 24.659C135.259 23.9961 134.985 23.3676 134.825 22.659ZM197.328 20.5333C198.357 19.3561 199.077 17.8247 198.482 16.259C198.174 15.4247 196.951 14.2018 196.219 13.7447C193.019 11.7104 189.945 14.6361 180.391 11.6647C178.608 11.1161 177.019 10.1447 175.408 9.24184C174.368 8.64756 173.271 8.1447 172.254 7.51613C170.197 6.25899 170.402 6.03042 166.334 3.92756C164.014 2.73899 163.465 1.67613 162.002 1.53899C160.654 1.41327 160.094 2.52184 158.117 3.76756C157.225 4.31613 156.288 4.7847 155.351 5.2647C153.431 6.25899 151.259 7.33327 149.031 7.23041C145.717 7.09327 143.522 3.97327 141.477 2.07613C139.614 0.350414 138.802 0.533272 137.648 2.60184C135.442 6.56756 135.557 11.8247 135.408 14.9904C135.271 18.2818 134.951 22.899 137.054 25.379C137.785 26.259 139.785 27.7676 139.968 27.8247C140.002 27.8361 143.042 27.9161 144.757 27.9161C154.208 27.9161 154.711 27.9733 156.162 27.5504C158.871 26.7618 161.397 25.0704 163.305 24.8876C164.928 24.7276 165.751 26.2133 166.871 27.059C167.682 27.6533 168.677 27.6533 170.482 27.6533C171.054 27.6533 171.648 27.6533 172.197 27.4133C173.031 27.0247 173.397 26.1218 174.082 26.0647C174.802 26.019 175.065 26.7961 175.557 27.1618C175.979 27.4704 176.631 27.3904 177.122 27.379C178.059 27.3561 180.322 27.299 181.191 26.9561C181.819 26.7161 182.128 26.0304 182.779 25.8476C183.762 25.5847 184.414 26.8533 185.385 26.5904C188.208 25.8476 189.545 24.7504 192.597 22.099C194.402 20.5218 194.185 20.6133 194.505 20.3847C194.425 20.6247 193.134 22.2933 193.054 22.4076C192.391 23.2418 192.162 23.4018 193.545 22.1561C195.351 20.3276 194.825 20.899 195.877 19.6076C195.945 20.0304 195.088 21.4133 194.928 21.779C195.237 21.5504 196.631 19.779 196.859 19.459C197.134 19.0704 197.374 18.6361 197.705 18.2933C197.774 18.579 197.579 18.979 197.488 19.2418C196.905 20.7733 196.608 21.0018 196.425 21.4361C196.757 21.1961 197.054 20.8418 197.328 20.5333ZM185.225 14.7733C192.414 15.0818 195.019 13.859 195.271 15.3904C195.374 16.099 194.859 16.7961 194.425 17.3104C193.339 18.579 191.934 19.3447 190.414 19.9961C188.551 20.7961 183.077 23.0247 181.054 23.299C179.671 23.4933 178.368 22.9561 177.008 23.0476C175.545 23.1504 174.117 23.859 172.631 23.6418C172.334 23.5961 172.071 23.4818 171.785 23.4018C171.591 23.3447 171.419 23.3904 171.248 23.2418C170.802 22.8533 170.894 21.9276 169.568 20.3733C166.997 17.3561 160.562 14.739 156.425 13.8247C152.791 13.0361 149.054 12.8304 145.419 12.0418C143.991 11.7218 142.585 11.2647 141.157 10.9333C139.957 10.659 138.528 10.3961 137.694 9.39041C136.677 8.15613 137.168 6.28184 137.739 4.95613C139.157 1.68756 140.185 2.0647 140.242 2.28184C141.397 2.28184 141.819 3.77899 142.665 4.79613C144.551 7.07042 147.328 8.5447 150.517 8.68185C152.505 8.77327 153.385 8.3047 156.859 8.5447C157.442 8.59042 158.037 8.65899 158.619 8.60184C161.088 8.36184 162.734 7.15042 168.974 10.4418C175.968 14.1333 175.991 13.9161 181.557 14.5676C181.922 14.6133 182.162 14.7733 182.368 14.0418C182.482 13.6761 182.139 13.4818 181.854 13.3447C180.917 12.8761 178.997 12.339 177.991 12.4304C177.225 12.5104 176.528 12.7733 175.751 12.7504C175.225 12.739 174.619 12.4304 174.459 11.8933C174.311 11.4133 174.631 11.0133 174.654 10.5561C173.728 10.5561 172.814 11.5276 171.945 10.739C171.454 10.2818 171.614 9.67613 171.545 9.09327C171.339 6.97899 169.008 10.4647 167.545 8.96756C166.757 8.1447 167.694 7.05899 167.591 6.4647C167.545 6.20185 167.282 5.95042 167.054 5.81327C166.597 5.53899 166.254 5.95041 165.888 6.19041C164.311 7.20756 163.122 6.40756 163.362 4.92185C163.431 4.4647 163.934 3.39042 162.025 3.92756C159.545 4.6247 157.397 6.85327 158.254 7.03613C159.259 7.25327 161.671 5.9847 162.802 6.4647C162.859 6.48756 163.077 6.59042 163.019 6.68184C162.985 6.75042 162.734 6.7047 162.665 6.71613C161.408 6.87613 159.328 8.44184 157.785 7.84756C156.951 7.51613 157.031 6.61327 157.431 5.96184C158.494 4.27041 162.585 2.00756 163.968 3.25327C164.871 4.0647 163.808 5.43613 164.437 5.72185C164.882 5.92756 165.511 5.3447 165.842 5.11613C166.494 4.67041 167.259 4.72756 167.842 5.2647C169.374 6.68185 167.671 7.96184 168.265 8.37327C168.917 8.81899 170.128 7.20756 171.442 7.53899C172.128 7.71042 172.448 8.44185 172.448 9.09327C172.459 9.35613 172.357 9.84756 172.562 10.0533C172.974 10.4647 174.265 9.21899 175.168 9.81327C175.625 10.1104 175.579 10.6361 175.454 11.0818C175.419 11.2304 175.259 11.5047 175.351 11.6418C175.454 11.8133 175.728 11.859 175.922 11.8704C177.168 11.8933 177.682 10.9676 180.974 12.0647C181.397 12.2018 181.831 12.3276 182.242 12.5218C183.099 12.9104 183.602 13.779 183.088 14.6704C183.774 14.7961 184.528 14.739 185.225 14.7733ZM140.928 12.1218C143.968 12.8761 146.745 12.579 149.397 14.6361C150.677 15.6418 152.128 17.059 152.231 17.1276C152.448 17.2761 152.631 17.3104 152.757 17.5733C153.088 18.3276 152.357 18.8418 151.774 19.1276C150.368 19.779 148.025 19.7676 146.814 19.7676C145.237 19.7676 140.208 19.6304 138.734 19.4247C137.225 19.219 136.311 18.659 135.865 17.059C135.488 15.7561 135.682 14.259 136.151 12.9904C136.437 12.2361 136.768 11.2533 137.694 11.1276C138.368 11.0361 139.019 11.6418 140.928 12.1218ZM151.682 13.5961C156.734 14.4761 161.397 15.4361 165.888 18.2704C167.374 19.1961 168.699 20.1218 169.762 21.459C170.014 21.779 170.585 22.499 169.934 22.7618C168.997 23.1504 164.105 20.7504 159.385 19.6304C156.197 18.8761 152.677 18.4647 150.494 14.8076C150.288 14.4647 149.797 13.7676 150.334 13.4704C150.402 13.4361 150.471 13.4133 150.539 13.4133C150.894 13.3676 151.339 13.539 151.682 13.5961ZM138.882 19.9618C141.522 20.1561 144.151 20.5447 146.791 20.7276C151.477 21.0476 152.859 19.4818 155.591 19.7447C158.471 20.019 163.762 22.259 167.557 23.0933C168.951 23.4018 172.219 23.9733 173.899 23.9276C174.859 23.9047 175.751 23.4476 176.722 23.5161C178.288 23.619 179.854 24.6247 184.574 23.3447C186.962 22.7047 188.917 21.1847 190.494 21.299C192.928 21.459 190.094 25.8704 184.757 25.7447C183.922 25.7218 183.054 25.3676 182.219 25.4704C181.568 25.5504 181.042 26.0647 180.448 26.3047C179.271 26.7733 176.825 26.6704 175.774 26.3276C175.054 26.0876 174.311 25.6304 173.522 25.7104C172.208 25.8361 170.699 27.0818 168.208 26.579C166.162 26.179 165.671 24.9561 164.722 24.5333C163.648 24.0533 162.505 24.7504 160.974 24.3961C159.648 24.0761 158.722 22.8647 157.351 22.7618C155.488 22.6361 152.779 25.0933 149.374 24.419C148.254 24.2018 147.214 23.7561 146.071 23.6761C144.974 23.5961 143.865 23.8476 142.779 23.9847C140.562 24.259 137.385 23.8018 136.345 22.0761C135.831 21.219 135.671 19.6761 137.008 19.5047C137.648 19.4247 138.242 19.9161 138.882 19.9618ZM158.494 24.4761C158.814 24.6247 159.168 24.6933 159.477 24.8418C159.831 25.0247 160.048 25.5733 159.762 25.9047C159.522 26.179 159.042 26.259 158.722 26.3618C153.019 27.9847 148.608 27.3333 146.974 27.219C144.642 27.059 139.877 27.7333 139.762 26.2704C139.705 25.379 141.111 25.5047 141.979 25.3561C143.488 25.1047 144.608 24.4533 146.151 24.6476C147.282 24.7847 148.117 25.5161 150.357 25.4247C153.614 25.2761 154.139 24.1218 156.242 23.8361C157.077 23.7333 157.774 24.1561 158.494 24.4761ZM135.957 25.5847H136.082C136.025 25.539 136.002 25.539 135.957 25.5847ZM190.242 27.3333C190.471 27.3333 190.437 27.3447 190.437 27.3218L190.242 27.3333ZM170.768 30.3733C170.768 30.3733 185.214 30.8761 185.305 30.8876C184.985 31.4018 164.311 31.1847 163.271 31.1504C156.197 30.979 149.419 30.5104 147.408 30.6476C144.185 30.8761 147.797 29.8133 170.768 30.3733Z" fill="white"/>
<path d="M12.2388 56.8789C4.85588 56.8789 0.399578 53.4804 0.509107 45.1014C0.509107 45.1014 3.79041 45.1014 10.3534 45.5115C10.2971 48.0311 10.5914 49.496 12.2321 49.496C12.9938 49.496 13.6964 48.91 13.6952 47.6209C13.6941 46.3905 12.9315 45.4529 9.41486 44.3982C3.02632 42.5232 0.797206 39.7692 0.79292 35.0817C0.788153 29.8667 4.8862 25.9409 12.1519 25.9409C19.5349 25.9409 23.3478 30.6285 23.12 37.8356C23.12 37.8356 19.0181 37.5426 13.7447 37.6012C13.8597 35.1989 13.448 33.6168 12.0418 33.6168C10.8699 33.6168 10.4019 34.4957 10.4027 35.316C10.404 36.7223 11.5769 37.8356 14.3902 38.7145C20.9547 40.7068 23.3594 43.3435 23.3634 47.6795C23.3695 54.3007 18.2155 56.8789 12.2388 56.8789ZM24.8577 54.8281C24.8577 54.8281 25.1938 37.9528 24.9398 16.4486C24.9398 16.4486 27.9282 16.5071 34.9009 16.39C34.9009 16.39 34.6719 22.308 34.6792 30.3355C36.1418 27.8745 38.3084 26.2925 41.4725 26.2925C45.6913 26.2925 47.8627 29.9839 48.0434 35.3746C48.345 44.7498 48.2391 57.1133 48.2391 57.1133C48.2391 57.1133 44.6647 56.9961 37.8677 56.9961C37.8677 56.9961 37.9756 46.8006 37.8499 37.5426C37.8486 36.0778 37.438 35.609 36.6177 35.609C35.7388 35.609 35.329 36.0192 35.3304 37.5426C35.2212 46.2733 35.2875 54.7695 35.2875 54.7695C35.2875 54.7695 32.0647 54.7109 24.8577 54.8281ZM62.1017 56.4687C52.7265 56.4687 49.6738 50.1991 49.6653 40.8825C49.6569 31.6832 54.0465 26.2339 62.2498 26.2339C71.039 26.2339 74.6773 32.2105 74.6857 41.3513C74.6958 52.4257 69.9533 56.4687 62.1017 56.4687ZM62.2127 49.7889C63.2088 49.7889 63.7939 48.7928 63.7871 41.4099C63.7808 34.4957 63.3109 33.2066 62.1976 33.2066C60.9671 33.2066 60.5581 34.4957 60.564 40.9997C60.5712 48.7928 61.0408 49.7889 62.2127 49.7889ZM88.4851 56.7617C80.6334 56.7617 75.883 52.0741 75.8734 41.6443C75.8659 33.3824 79.6101 27.0542 88.3994 27.0542C97.8917 27.0542 101.354 33.2066 100.603 44.0467C100.603 44.0467 95.3877 44.0467 86.54 44.2224C86.7197 48.4999 87.3067 49.6132 88.5372 49.6132C89.5919 49.6132 90.1766 48.3241 90.2917 45.9803C90.2917 45.9803 94.9797 46.449 100.781 46.6248C100.083 52.1913 95.5165 56.7617 88.4851 56.7617ZM88.3466 33.441C87.1747 33.441 86.6482 34.3199 86.5354 39.1247C87.5901 39.1247 88.7033 39.0661 89.9338 39.0075C89.9884 34.6715 89.5185 33.441 88.3466 33.441ZM113.406 56.8203C106.492 56.8203 101.567 53.832 101.677 45.7459C101.677 45.7459 105.369 45.8045 111.521 45.5701C111.465 48.0897 111.759 49.4374 113.399 49.4374C114.161 49.4374 114.864 48.8514 114.863 47.5623C114.861 46.2147 113.865 45.3357 110.524 44.3982C104.663 42.7576 101.965 40.4138 101.961 35.5504C101.956 30.3355 106.054 26.4682 113.32 26.4682C120.996 26.4682 124.516 31.4488 124.287 37.5426C124.287 37.5426 120.303 37.5426 114.912 37.8942C115.027 35.4918 114.616 34.1442 113.21 34.1442C112.038 34.1442 111.57 34.9059 111.571 35.7262C111.572 37.1325 112.627 38.07 115.617 39.0075C122.474 41.1169 124.527 43.3435 124.531 47.5038C124.537 54.125 119.383 56.8203 113.406 56.8203Z" fill="#EF3636"/>
<path d="M138.528 56L140.124 42.056C140.124 41.272 139.928 40.628 139.536 40.124C139.172 39.592 138.514 39.326 137.562 39.326C136.61 39.326 135.826 39.788 135.21 40.712C134.594 41.608 134.202 42.56 134.034 43.568C133.054 50.54 132.508 54.684 132.396 56H126.768L129.078 36.26C130.254 35.952 131.15 35.798 131.766 35.798C133.53 35.798 134.496 36.386 134.664 37.562C136.036 36.386 137.534 35.798 139.158 35.798C142.406 35.798 144.478 36.764 145.374 38.696C146.746 36.736 148.706 35.756 151.254 35.756C153.13 35.756 154.614 36.246 155.706 37.226C156.798 38.178 157.344 39.382 157.344 40.838C157.344 41.258 157.26 42 157.092 43.064C156.448 47.264 156.126 49.728 156.126 50.456C156.126 51.772 156.56 52.43 157.428 52.43C158.156 52.43 158.926 51.954 159.738 51.002C160.578 50.022 161.25 48.524 161.754 46.508C162.706 47.516 163.28 48.314 163.476 48.902C162.02 53.774 159.444 56.21 155.748 56.21C154.012 56.21 152.724 55.678 151.884 54.614C151.044 53.55 150.624 52.43 150.624 51.254L151.632 41.972C151.632 41.216 151.436 40.586 151.044 40.082C150.652 39.578 150.022 39.326 149.154 39.326C148.314 39.326 147.572 39.648 146.928 40.292C146.284 40.936 145.836 41.762 145.584 42.77C144.744 49.882 144.198 54.292 143.946 56H138.528ZM179.13 56.21C176.554 56.21 174.846 55.314 174.006 53.522C172.55 55.342 170.674 56.252 168.378 56.252C166.11 56.252 164.192 55.482 162.624 53.942C161.084 52.402 160.314 50.372 160.314 47.852C160.314 44.184 161.392 41.258 163.548 39.074C165.704 36.89 168.434 35.798 171.738 35.798C171.822 35.798 171.906 35.798 171.99 35.798C173.39 35.798 174.678 36.036 175.854 36.512C176.61 36.036 177.52 35.798 178.584 35.798C179.676 35.798 180.46 35.938 180.936 36.218C180.684 38.29 180.418 40.334 180.138 42.35C179.858 44.338 179.662 45.752 179.55 46.592C179.298 48.496 179.172 49.868 179.172 50.708C179.172 51.828 179.62 52.388 180.516 52.388C181.216 52.388 181.958 51.926 182.742 51.002C183.526 50.05 184.212 48.566 184.8 46.55C185.612 47.278 186.172 48.09 186.48 48.986C185.668 51.646 184.576 53.522 183.204 54.614C181.832 55.678 180.474 56.21 179.13 56.21ZM172.368 39.074C170.576 39.074 169.148 39.76 168.084 41.132C167.048 42.476 166.432 44.492 166.236 47.18C166.208 47.432 166.194 47.67 166.194 47.894C166.194 49.266 166.516 50.358 167.16 51.17C167.832 51.982 168.686 52.388 169.722 52.388C171.486 52.388 172.816 51.142 173.712 48.65L174.72 39.578C173.908 39.242 173.124 39.074 172.368 39.074ZM195.84 41.3C195.84 40.068 195.266 39.452 194.118 39.452C192.998 39.452 192.102 40.18 191.43 41.636C194.454 44.016 195.966 46.69 195.966 49.658C195.966 51.814 195.364 53.452 194.16 54.572C192.956 55.692 191.444 56.252 189.624 56.252C187.804 56.252 186.474 55.692 185.634 54.572C184.794 53.424 184.374 51.982 184.374 50.246C184.374 49.714 184.388 49.322 184.416 49.07L185.886 36.26C186.894 35.952 187.916 35.798 188.952 35.798C190.66 35.798 191.514 36.428 191.514 37.688V37.772C192.634 36.456 194.062 35.798 195.798 35.798C197.058 35.798 198.038 36.092 198.738 36.68C199.438 37.24 199.788 37.996 199.788 38.948C199.788 39.9 199.424 40.684 198.696 41.3C197.996 41.888 197.072 42.182 195.924 42.182C195.868 42.182 195.812 42.182 195.756 42.182C195.812 41.874 195.84 41.58 195.84 41.3ZM193.236 49.448C193.236 47.824 192.396 46.2 190.716 44.576C190.212 48.608 189.96 50.638 189.96 50.666C189.96 51.842 190.436 52.43 191.388 52.43C192.62 52.43 193.236 51.436 193.236 49.448ZM210.25 26.768C210.25 26.936 209.872 29.946 209.116 35.798H215.29V39.032H208.696L208.57 40.082C211.846 42.826 213.484 45.822 213.484 49.07C213.484 51.618 212.826 53.452 211.51 54.572C210.222 55.692 208.668 56.252 206.848 56.252C205.028 56.252 203.698 55.776 202.858 54.824C202.018 53.844 201.598 52.668 201.598 51.296C201.598 50.988 201.626 50.652 201.682 50.288L202.984 39.116L202.816 39.032H199.414C199.386 38.752 199.372 38.304 199.372 37.688C199.372 37.044 199.498 36.414 199.75 35.798H203.362L204.706 24.374C205.294 24.15 206.078 24.038 207.058 24.038C209.186 24.038 210.25 24.948 210.25 26.768ZM210.67 49.028C210.67 47.096 209.83 45.192 208.15 43.316C207.646 47.488 207.394 49.896 207.394 50.54C207.394 51.8 207.8 52.43 208.612 52.43C209.2 52.43 209.69 52.164 210.082 51.632C210.474 51.072 210.67 50.204 210.67 49.028Z" fill="white"/>
</svg>
