<svg width="25" height="25" viewBox="0 0 25 25" fill="none" xmlns="http://www.w3.org/2000/svg">
<path d="M2.42725 2.49274C1.87496 2.49274 1.42725 2.94045 1.42725 3.49274C1.42725 4.04502 1.87496 4.49274 2.42725 4.49274V2.49274ZM4.71978 3.49274L5.68501 3.23132C5.56695 2.79542 5.17139 2.49274 4.71978 2.49274V3.49274ZM8.44516 17.248L7.47993 17.5094C7.6102 17.9904 8.07472 18.3021 8.56919 18.2402L8.44516 17.248ZM19.9078 15.8151L20.0319 16.8074C20.4566 16.7543 20.8004 16.4369 20.8871 16.0177L19.9078 15.8151ZM21.6272 7.50468L22.6065 7.70728C22.6674 7.41277 22.5926 7.10647 22.4027 6.87325C22.2128 6.64004 21.928 6.50468 21.6272 6.50468V7.50468ZM5.80635 7.50468L4.84112 7.76609L5.80635 7.50468ZM2.42725 4.49274H4.71978V2.49274H2.42725V4.49274ZM8.56919 18.2402L20.0319 16.8074L19.7838 14.8228L8.32112 16.2557L8.56919 18.2402ZM20.8871 16.0177L22.6065 7.70728L20.648 7.30207L18.9286 15.6125L20.8871 16.0177ZM3.75456 3.75415L4.84112 7.76609L6.77158 7.24326L5.68501 3.23132L3.75456 3.75415ZM4.84112 7.76609L7.47993 17.5094L9.41038 16.9865L6.77158 7.24326L4.84112 7.76609ZM21.6272 6.50468H5.80635V8.50468H21.6272V6.50468ZM11.0272 21C11.0272 21.2762 10.8034 21.5 10.5272 21.5V23.5C11.908 23.5 13.0272 22.3807 13.0272 21H11.0272ZM10.5272 21.5C10.2511 21.5 10.0272 21.2762 10.0272 21H8.02725C8.02725 22.3807 9.14653 23.5 10.5272 23.5V21.5ZM10.0272 21C10.0272 20.7239 10.2511 20.5 10.5272 20.5V18.5C9.14653 18.5 8.02725 19.6193 8.02725 21H10.0272ZM10.5272 20.5C10.8034 20.5 11.0272 20.7239 11.0272 21H13.0272C13.0272 19.6193 11.908 18.5 10.5272 18.5V20.5ZM19.0272 21C19.0272 21.2762 18.8034 21.5 18.5272 21.5V23.5C19.908 23.5 21.0272 22.3807 21.0272 21H19.0272ZM18.5272 21.5C18.2511 21.5 18.0272 21.2762 18.0272 21H16.0272C16.0272 22.3807 17.1465 23.5 18.5272 23.5V21.5ZM18.0272 21C18.0272 20.7239 18.2511 20.5 18.5272 20.5V18.5C17.1465 18.5 16.0272 19.6193 16.0272 21H18.0272ZM18.5272 20.5C18.8034 20.5 19.0272 20.7239 19.0272 21H21.0272C21.0272 19.6193 19.908 18.5 18.5272 18.5V20.5Z" fill="#1C1E25"/>
</svg>
