<svg width="25" height="25" viewBox="0 0 25 25" fill="none" xmlns="http://www.w3.org/2000/svg">
<path fill-rule="evenodd" clip-rule="evenodd" d="M3.8336 6.70641C4.73373 5.80655 5.95441 5.30104 7.2272 5.30104C8.49998 5.30104 9.72066 5.80655 10.6208 6.70641L12.0272 8.11161L13.4336 6.70641C13.8764 6.24796 14.406 5.88229 14.9917 5.63072C15.5773 5.37916 16.2071 5.24675 16.8445 5.24121C17.4818 5.23567 18.1139 5.35712 18.7038 5.59847C19.2937 5.83982 19.8296 6.19623 20.2803 6.64691C20.731 7.0976 21.0874 7.63353 21.3287 8.22343C21.5701 8.81333 21.6915 9.4454 21.686 10.0827C21.6805 10.7201 21.548 11.3499 21.2965 11.9356C21.0449 12.5212 20.6792 13.0508 20.2208 13.4936L12.0272 21.6884L3.8336 13.4936C2.93374 12.5935 2.42822 11.3728 2.42822 10.1C2.42822 8.82722 2.93374 7.60654 3.8336 6.70641V6.70641Z" stroke="#1C1E25" stroke-width="2" stroke-linejoin="round"/>
</svg>
