<svg width="38" height="34" viewBox="0 0 38 34" fill="none" xmlns="http://www.w3.org/2000/svg">
<g clip-path="url(#clip0_166_12)">
<path d="M37.3283 11L10.0193 21.591C7.75465 22.4646 5.85296 22.9014 4.31419 22.9014C2.57218 22.9014 1.30871 22.3456 0.523774 21.234C0.0312427 20.52 -0.113924 19.6143 0.0882725 18.5168C0.291506 17.4194 0.828625 16.2492 1.69963 15.0063C2.42546 14.0005 3.61635 12.6783 5.27229 11.0397C4.70988 11.845 4.29784 12.7297 4.05289 13.6577C3.61739 15.3501 4.00934 16.593 5.22874 17.3863C5.80941 17.7566 6.60783 17.9417 7.624 17.9417C8.4359 17.9417 9.35045 17.8227 10.3677 17.5847L37.3283 11Z" fill="white"/>
</g>
<defs>
<clipPath id="clip0_166_12">
<rect width="37.3287" height="33.9014" fill="white"/>
</clipPath>
</defs>
</svg>
