<svg width="45" height="45" viewBox="0 0 45 45" fill="none" xmlns="http://www.w3.org/2000/svg">
<rect x="0.0273438" y="0.5" width="44" height="44" rx="22" fill="white"/>
<path d="M12.4272 31.0124C12.4272 27.2369 15.5815 24.1762 22.0272 24.1762C28.473 24.1762 31.6272 27.2369 31.6272 31.0124C31.6272 31.6131 31.189 32.1 30.6484 32.1H13.4061C12.8655 32.1 12.4272 31.6131 12.4272 31.0124Z" stroke="#1C1E25" stroke-width="2"/>
<path d="M25.6272 16.5C25.6272 18.4882 24.0155 20.1 22.0272 20.1C20.039 20.1 18.4272 18.4882 18.4272 16.5C18.4272 14.5118 20.039 12.9 22.0272 12.9C24.0155 12.9 25.6272 14.5118 25.6272 16.5Z" stroke="#1C1E25" stroke-width="2"/>
</svg>
